<?xml version="1.0" encoding="UTF-8"?><svg xmlns="http://www.w3.org/2000/svg" xmlns:xlink="http://www.w3.org/1999/xlink" data-name="Layer 1" height="993.0" id="Layer_1" preserveAspectRatio="xMidYMid meet" version="1.0" viewBox="26.6 16.6 1716.1 993.0" width="1716.1" zoomAndPan="magnify">
 <title>Forest &amp;amp; Mountain - 27</title>
 <g data-name="27" id="change1_1">
  <path d="m1739.5 744.54c-3.22-0.66-6.49-1.56-9.74-1.55-29.5 0.08-58.88-0.43-88.15-5.48a244.3 244.3 0 0 1 -73.71 -24.79c-3.67-2-8.69-3.35-9.58-9.62 13.43-0.59 26-1.21 38.68-1.66 5.9-0.2 12-0.51 17.34 2.46 19.64 10.87 41.73 12.42 63.07 16.8 7.82 1.6 15 0.44 21.57-6.36-15.59-10.56-36.45-7.14-51.1-20.67 10.15-7.39 22.67-7.51 33.07-12.6 10-4.91 23.65-4 30.21-17.07-3.12-1-5.33-2.33-7.57-2.39-10.26-0.24-19.91 3.09-29.63 5.78-16.23 4.49-32.45 8.71-49.42 9.66-8 0.45-15.1-1.25-21.48-5.73a250.87 250.87 0 0 1 -50 -46.05c-0.23-0.27 0.25-1.14 0.54-2.29 12.6 4.27 25 9.46 37.8 12.58 22.06 5.37 44.34 10 66.7 13.91 20.12 3.52 40.4 1.92 60.24-2.56 8.57-1.93 17.16-5.23 22.87-13.4-12.13-6.34-12.14-6.83-24.43-6.52a251.73 251.73 0 0 1 -62.7 -6.22c-32-7.3-63.51-16.12-94.22-32.33 15-8.73 29.39-10.64 44.53-7.19 6.54 1.49 12.76 4 19.69 4 19.4 0 38.8 0.4 58.2 0.39 5 0 10.3-0.14 15-1.65 5.3-1.7 11.09-4.16 10.46-11.68-9.29-5-19-6.72-29.27-6.82-8.43-0.09-16.88-0.58-25.26-1.42-4.81-0.49-9.91-1.33-12.4-7.36 7.24-5.36 15.17-10.18 21.76-16.42 6.24-5.91 14.6-11.44 13-23.6-4.84 1.18-8.78 1.8-12.46 3.15a44 44 0 0 0 -8.81 4.73c-5.64 3.67-10.94 7.92-16.74 11.31-31.77 18.6-44.38 17.62-72.36-5.73-3.81-3.18-7-7.23-10.12-11.11-2.53-3.11-6.29-5.9-4.2-11.41 5.82-2.37 11.93-5.14 18.24-7.35 19.8-7 19.86-7 41.51-1.13 13.05 3.51 26.12 6.78 39.77 5.59 2.1-0.19 5-1.12 4.43-6.43-6.28-6.21-15.87-9.39-24.71-13.69-3.77-1.84-7.89-3-8.56-8.79l7-6.42c2.49-2.27 4.76-4.68 4.93-8.32-0.7-0.47-1.35-1.25-2.11-1.37-11.48-1.82-20.19 7.62-32.49 7.77-21.14-12.21-41.55-26.68-54.81-49.31-5.07-8.65-10.38-17.2-8.52-31.45 4.51 3.36 6.67 4.62 8.41 6.31 18.85 18.39 40.74 32.43 63.82 44.78 13.63 7.29 28 11.43 43.65 10.28 2.51-0.19 5.24-0.18 7.4-1.23s4.6-3.07 5-5.05c0.34-1.73-1.54-4.9-3.29-5.82a49.89 49.89 0 0 0 -11.9 -4.05c-27.84-6.46-51.46-20.2-71.58-41.27 2.46-3.57 6.26-5 10.17-6.17 8.07-2.44 16.31-4.4 24.22-7.28 13.17-4.78 23.6-13 29-26.35 0.9-2.25 0.81-5.22-1.92-6.57-1.26-0.62-3.5-0.82-4.53-0.1-17 11.8-35.56 13.88-55.31 9-3.24-0.81-6.84-0.15-10-1-8.1-2.16-16.18-4.51-24.05-7.37-4-1.45-7.45-4.59-8-9.11a12.8 12.8 0 0 1 4.21 -11.37c6.48 0.58 9.13 6.54 13.69 9.76 9 6.38 18.41 12 29.6 13.37 5.05 0.65 7.51-2.57 8.58-8-10.66-10-23.79-18-32.67-30.53-11.28-15.92-16-26.35-17.19-38.76 7.14 1.16 14.51 2.49 21.93 3.42 1.14 0.14 2.51-1.54 4.42-2.81 0.16-6.82-5.59-9.46-10.1-12.89-16.06-12.21-27.28-27.41-30.18-47.92a23.67 23.67 0 0 0 -2 -7.28c-1.38-2.75-2.64-6.33-7.06-5-1.1 1.3-2.87 2.43-3.1 3.81-2.42 14.83-8.72 29-7.59 44.44 0.51 7-1.81 13.09-4.85 19.31-10.15 20.69-22.86 39.35-40.52 54.41-3.17 2.71-6.38 5.7-5.31 10.51 0.67 3 9 3.36 13.79 0 9-6.27 17.52-13.18 26.45-19.53 2.9-2.07 3.58-7.53 8.92-6.36 1.75 7.35-3.75 11-7.45 15-6.3 6.74-12.92 13.37-21.65 17.18-10.81 4.71-21.47 9.82-32.48 14-6.86 2.62-13.62 6.68-20.84 5.33-7.12-3.9-7.68-11.87-12.88-16.2a6.05 6.05 0 0 0 -4.38 -1.42 5.19 5.19 0 0 0 -4.18 5.41c0 5.77 5.45 10.68 2.74 16.77-4.15 6.62-14.71 3.21-17.9 11.51 6.94 11.15 19.65 2.31 29.37 9.94 2.58 5.53 10.21 10.41 11.57 19.52-22.5 5.45-45.53 1.29-68 3.22 0.21-0.15 0.44-0.29 0.64-0.45a5.33 5.33 0 0 0 1.6 -4.32c-0.23-1.35-1.68-3.25-2.92-3.55a40 40 0 0 0 -22.43 1.29c-10.61 3.61-21.5 4.1-32.45 4.08-16 0-32-0.42-48.07-0.67-17.92-0.28-34.87-5-51.41-11.45-2.92-1.13-5.82-2.83-5.83-7.95 21.88 0.61 44 1.93 65.5-1.76 21.21-3.63 43.44-4.85 62.59-16.5-3.07-9.42-4.29-10.93-9.11-9.17-25.26 9.23-51.17 7.83-80.85 6.2 11.12-7.28 19.29-12.59 27.41-18 3.74-2.49 7.9-2.2 12.12-2.45 21.83-1.31 43.65-2.88 65.47-4.41 5.1-0.36 10.13-1.3 14.14-4.74a7.54 7.54 0 0 0 2.24 -4.35 4.76 4.76 0 0 0 -3.92 -5.51c-8.34-0.83-16.75-1.15-25.14-1.41-9.89-0.32-19.92 0.9-29.17-2.18-1.53-6.19 3.49-8.18 5-11.84a10.33 10.33 0 0 0 0.36 -6.94c-1-2.56-4.07-3.05-6.48-2.06-7.78 3.2-15.8 6.09-23 10.3s-14.41 4.56-21.69 1.31c-25.73-11.49-49.24-26-65.46-49.95-1.36-2-2.86-4.37 0.52-7 5.82 2 12 4 18.25 6.1 23.29 7.71 46.66 14.49 71.61 8.35 4-1 8.42-0.52 12.59-1.11a106.88 106.88 0 0 0 40.16 -14.33c3.14-1.88 4.89-4.42 4.44-8.18-4-4.3-9.1-3.72-14.15-3.25-23.6 2.19-47.21 0.74-70.8-0.08-11.93-0.41-24.58-1.69-33.73-9-20-16.09-36.38-35.27-36.83-63.18 0-2.37 0.46-4.77 3.24-5.76 4.69 0.79 6.68 4.75 9.09 8.11 15 20.86 35.26 36 55.51 51.14a73.88 73.88 0 0 0 15.3 8.75c2.77 1.18 6.43 0.51 9.66 0.32 2-0.12 3.65-4.92 2.2-6.22-3.11-2.76-6.08-5.84-9.61-7.94-23.76-14.12-40.63-35.24-57.67-56.21a115.93 115.93 0 0 1 -17.53 -28.6c8.11 0.44 12.31 4.68 17.28 6.91 5.38 2.42 10.6 5.24 16.08 7.39a55.72 55.72 0 0 0 12 3.06c1.17 0.17 3.27-1.41 3.81-2.67a5.5 5.5 0 0 0 -0.71 -4.64 24 24 0 0 0 -5.52 -5q-15.52-10.84-31.2-21.49c-10.94-7.4-17-18.22-22.06-30-4.86-11.2-5.49-22.87-5.15-34.71 0.3-10.35-1.46-20.11-7-29a5.23 5.23 0 0 0 -6.51 -2.31c-2 0.89-4.81 3.12-4.93 4.9-0.68 10.92-0.57 21.88-1 32.82-0.37 10.07 0.8 20.45-3 30.05-11.65 29.49-27.73 55.8-54.54 74.27a106.75 106.75 0 0 0 -13.5 11.42c-0.9 0.87-1.19 3.86-0.45 4.63 1.55 1.64 4 3.49 6 3.36a20.85 20.85 0 0 0 9.4 -3.09c12.15-7.62 24-15.75 34.17-26 4.15-4.15 8.43-8.17 12.87-12 4.15-3.59 5.71-9.94 12.17-11.79a30.65 30.65 0 0 1 3.6 26.89 132.53 132.53 0 0 1 -9.93 23.08c-5.73 10.55-13.63 19.8-24.62 24.78-17.55 7.93-34.37 18.16-54.42 19.37-6.47 0.39-12.87 1.84-19.14 2.79-1.09 6.19 2.75 8.74 6.72 9.35 11.61 1.77 23.34 2.72 35 4 0 3.76-2.62 5.68-5.36 7.63-15.18 10.84-31.85 18.88-48.92 26.17-8.52 3.64-17.24 6.93-25.37 11.31-4.29 2.31-7.23 6.71-4.37 12.22 1.82 0.58 3.49 1.7 4.92 1.46a53.11 53.11 0 0 0 12.1 -3.16c12.36-5.39 24.41-11.48 36.81-16.78 31.26-13.34 60.82-29.1 83.15-55.73 1.61-1.92 3.71-3.43 5.47-5.25 2.31-2.37 4.54-4.76 8.35-3.73 5.29 30.21-1 46.9-24.14 63.49-6.85 4.9-14 9.49-21.24 13.72-14 8.12-28.48 14.33-45.4 13.14-5.11-0.36-11.44-2-15.93 3 5.77 10.27 6.66 11.35 11.95 11.81 12.67 1.12 25.37 1 37.72-2.21 13.83-3.6 27.47-7.94 41.2-11.94 2.45-0.71 4.89-1.05 7.37 2.67-8.7 27.57-26.51 49-50.62 65.62-5.79 4-11.82 5.11-19.11 3.39a341.61 341.61 0 0 1 -71.42 -24.94c-2.82-1.37-5.76-3.76-9.45-0.69-2.69 2.59-2 6.28-0.37 9a39.08 39.08 0 0 0 8.3 9.32c9.21 7.9 20.8 10.83 32 14.64 3.82 1.3 8.53 1.39 9.38 6.91-7.86 8.87-19.47 9-29.56 12.5-4.71 1.65-10 1.75-14.63 3.47-1.63 0.6-2.73 3.89-3.08 6.11-0.2 1.2 1.4 3.41 2.7 4 3 1.26 6.23 2.45 9.39 2.49 19.62 0.26 38.57-3.89 56.95-10.22 17.71-6.1 35-11.89 54.05-5.24 4.53 1.58 10 0.53 15.1 0.33 7.4-0.29 14.79-0.9 21.7-1.34 6.32 6.05 4.63 13.22 4.41 19.67-0.5 15-9.59 23-24.65 22.11a92 92 0 0 1 -40.78 -12.1c-9.43-5.38-18.8-10.91-27.75-16.11-4.17 2.9-3.93 6.38-2.94 9.57 1.8 5.75 5.42 10.34 10.09 14.19 5 4.11 9.77 8.47 15 13.06-11.16 6-13.32 7-19.59 5.47-37.49-9-76.52-12.84-110.66-33.1-3-1.8-6.27-1.31-8.23 2.32 2.35 9 9.72 13.69 16.67 18.26 46.41 30.5 97.06 41.39 151.93 32.05 2.84-0.48 5.92-2.85 8.23 1.23-7.28 12.25-19.52 18.75-31.28 24.87-14.73 7.68-30.07 9.93-45-1.92-7-5.58-15.33-10.29-25.28-11-8 9.75 3 15.23 4.53 22.6-5.34 3.87-11.36 1.94-17.13 1.86s-11.81-0.78-17.7-0.64c-5.65 0.12-10.88-5.53-17.24-0.86 0.53 2.15 0.32 5.56 1.76 6.54 15.34 10.4 31.14 21.24 50.87 17.11 18.61-3.89 35.34 0.58 50.75 9.51 12.8 7.42 26.59 10.41 40.49 13.39 8 1.72 16.41 1.4 25.77 2.09-7.75 7.58-15.94 11.66-24.81 14.56a212.13 212.13 0 0 1 -41.76 9.62c-11.68 1.34-23.28 3.52-34.86 5.61-3.52 0.63-5.59 3.21-5.63 7.94 2.37 1.52 5 4.39 8 4.89 14.09 2.32 28.28 5.47 42.44 5.53 19.12 0.09 42.31-7 70-17.78 6.46 10.66 3.48 19.17-6.18 25.85a181.17 181.17 0 0 1 -64.45 28.21c-16.76 3.69-33.56 2.51-47.47-10.19a108.17 108.17 0 0 0 -14.17 -10.59c-5.56-3.61-10.53-8.55-17.6-8.93-3.42 2.1-4.84 5.09-2.93 8.43a68.94 68.94 0 0 0 7.5 10c1.61 1.89 3.81 3.27 5.58 5 0.5 0.51 0.83 2 0.5 2.36-1 1.11-2.44 2.83-3.47 2.67-18.39-2.8-35.72-9.44-53.38-14.92a91.45 91.45 0 0 0 -12 -3.11c-1.28-0.21-3.4 1-4.14 2.24a5.35 5.35 0 0 0 0.06 4.59 27.51 27.51 0 0 0 1.87 2.89c-19.93 0.18-39.87 0.43-59.8 0.42-2.84 0-6.76 0.88-8.11-4.91 3.29-2.86 6.86-6.31 10.78-9.32 14.08-10.82 27.8-22 39-35.93 4-5 10.34-9.52 6.69-17.52-1.95-4.3-7.87-2.85-17.36 4.24-3.37 2.53-6.95 4.88-9.95 7.81-16.06 15.57-36.3 24.63-54.56 36.63-11.8 7.77-19.2 2-24.17-8.06-3.15-6.37-3.11-13-2.6-19.78 0.33-4.36 4.63-8.65 8.49-7.31 17.47 6.08 33.12-0.69 48.94-6.32a13.78 13.78 0 0 0 5.69 -4.55c0.59-0.76-0.09-3.6-1-4.24a13.07 13.07 0 0 0 -6.79 -2.53c-10.12 0-20.24 0.74-30.35 0.55-10.31-0.18-20.14-2.54-27.74-10.2a5.06 5.06 0 0 1 -0.49 -6.79c0.93-1.15 3-2.44 4.21-2.14 13.1 3.44 26.27 5.78 39.91 4.94 9.26-0.57 18.56-1.39 27.8-1.06 13 0.47 25.23-3 37.21-6.56 9.51-2.82 18.17-8.75 26.9-13.82 1.53-0.89 2.71-4.84 2-6.46s-4-2.85-6.21-2.81c-4.14 0.07-8.57 0.44-12.36 2-21 8.46-42.85 8.59-64.8 6.55-19.71-1.83-37.24-10.09-53.75-20.51-5-3.17-3.79-12.43 1.92-14.71 8.57-3.43 17.37-6.27 25.26-9.07 3.57 0.9 6.14 1.2 8.41 2.19 14.82 6.53 30.94 7.84 46.46 11.52 4 1 8.38 0.54 12.58 0.55s7.93-2.77 7.42-5.23a6.5 6.5 0 0 0 -4.54 -5.2c-6.37-2.17-12.89-4-19-6.77-5.69-2.55-12.78-3.6-15.93-11.74 4.75-2.44 9.27-4.55 13.59-7 8.78-5 17.85-9.6 26-15.44 5.18-3.69 11.27-8.25 9.26-16.29-1-3.95-9.84-2.48-17.52 3.72-12 9.66-25.61 16.21-39.64 22.06q-17 7.08-29.93-6.41c-20.28-21.08-38.1-43.13-33.4-75.32 0.61-4.12-0.28-8.45 0.1-12.63 0.24-2.72-1.45-6.72 3.4-7.65 6.18 3.49 9.14 9.74 13.38 14.88 9.75 11.81 20.56 22.33 36 26.4a5 5 0 0 0 6.18 -2.66c-0.8-8-5.17-13.51-11.63-18.35-10.17-7.61-18.41-17.17-25.58-27.79-15.89-23.6-26.38-48.96-27.42-77.66-0.27-7.69-1.25-15.17-7.41-20.72-3.66 0.91-6.34 3.12-6.59 6.75-0.51 7.55-0.2 15.17-0.72 22.72-1 14.31-2.31 28.61-9.29 41.6-11.4 21.23-25.57 39.69-48.95 49-3.19 1.27-5.73 3.23-5.56 7.19 2.64 5.29 7.14 7.11 12.62 6 10-2.08 18.88-6.75 27.47-12.3 6.15-4 11-10.36 18.28-11.62 5.34 3.23 4.69 7.7 3.71 11.6-7.75 31.18-26.27 56.18-46.8 79.87-1.94 2.25-5.88 3.45-9 3.81-8.53 1-16.93-0.28-24.41-4.8-7.18-4.33-14.07-9.14-21.13-13.68a8.93 8.93 0 0 0 -9.52 -0.37c-3.1 1.66-3.45 7-1.78 11.44 1.94 5.12 5.9 8 10 11 7.4 5.38 17.08 7.39 22.76 15.07-0.48 7.66-5.92 10.37-11.7 11.64a36 36 0 0 1 -24.61 -3.1l-8-4.08c6.08-6.61 11-13.53 16.18-20.27 0.57-0.75-0.25-3.28-1.18-4.25s-3.19-1.86-4.25-1.38c-7.75 3.45-14.25 8.75-20.45 14.5-1.51 1.4-3 2.78-4.59 4.16-4.57-2.31-9.14-4.62-13.73-6.88a31.88 31.88 0 0 0 -9.34 -2.85c-1-0.15-2.55 1.82-3.58 3a2.6 2.6 0 0 0 -0.32 2.41c2 2.56 3.82 5.65 6.48 7.27q4.9 3 9.85 5.95a0.39 0.39 0 0 1 -0.1 0.08c-9.91 7.8-20.62 10.23-33.18 6.26-12-3.79-24.6-5.61-36.72-9.07a305.48 305.48 0 0 1 -33.36 -11.51c-6.13-2.55-10.39-7.66-9.46-15.6 3.43-0.75 5.85-1.76 8.25-1.72 22.83 0.39 45.33-2.14 67.79-6.26 11.09-2 21.17-5.36 30-12.22a8 8 0 0 0 2.76 -9.11c-1.38-3.85-4.64-3.57-8.17-2.21-25.75 9.9-52.37 10.88-79.51 8.24-9.12-0.89-17.39-3.27-27.66-7.73 15.95-4.36 30-7.3 43.37-12.16 10-3.62 18.94-5 29.3-1.42 24.31 8.42 49.82 6.61 75 7.11 5.08 0.11 10.14-0.35 14.51-3.42 2.08-1.47 3.83-3.37 2.77-6.07-0.56-1.43-1.89-3.26-3.19-3.56-12.19-2.87-24.4-5.67-36.69-8.06s-24.77-4.31-37-6.41c-0.1-4.48 1.82-7.12 4.32-9.51 5.49-5.23 11.23-10.23 16.31-15.84 3-3.29 3.49-7.46-0.3-10.55-19 5.56-31.2 23.53-51 26.87-11.3-4.23-22.71-7.57-33.24-12.73-11.19-5.48-21.8-12.42-27.95-24.58 15.41-4.49 29.22-4.85 41.33 5.94a7.28 7.28 0 0 0 2.31 1c3.53 1.3 6.91 0.81 8.63-2.58 1-2 1.33-5.22 0.35-7-1.53-2.84-4.41-4.95-6.78-7.44 3.23-6.53 9.5-9.37 15.55-12.18 10.92-5.08 19.34-13.53 28.46-20.93 4.85-3.95 9.59-9.31 7.08-18.15-12.94 3.51-20.64 14.42-31.63 20-12.24 6.15-25 9.62-38.72 12.27-14.1-10.42-23.1-24.66-28.54-40.73-3-8.95-8.86-18.57-2.8-28.86 10.9 0.88 14.71 11.08 22.36 15.93 8.48 5.38 17 10.54 26.57 13.78 4.4-10.25 4.52-12.17-1-15.27-10.46-5.9-19.88-12.78-26-23.35-12.2-21.09-25.66-41.6-25.32-67.58 0.09-6.6-4.82-10.18-12.89-8.44-0.5 4-1.54 8.13-1.46 12.24 0.26 12.78-2.62 25.13-5.31 37.41-7.94 36.26-29.17 63.64-58.66 85.19-2.72 2-6 3.33-8.39 5.6-4.07 3.81-5.87 8.18-0.36 12.61 11-1.74 20.63-6.76 30-12.61 10-6.22 20.38-11.85 30.64-17.65 2.9-1.65 6-3 10.27 0.82 0.13 8 0.81 17.26 0.31 26.42-0.79 14.41-7.31 24.93-20.48 32.47-12.89 7.39-25.15 9-38.34 2.73-6.81-3.25-13.31-7.18-19.89-10.9-5.12-2.88-10-6.24-15.27-8.77-3.35-1.61-6.36-0.05-8.59 4.28 4.55 10.69 17.44 16.7 21.2 30.45-10.67 0.5-19.88 1-29.09 1.35-8.43 0.34-16.81 0.77-25 3.42-2.75 0.89-4.88 2.7-4.84 4.84s2.14 5.41 3.77 5.69c16.48 2.87 32.7 7.5 49.92 3 9.63-2.54 20-2.41 30.12-2.86 11-0.5 25.15 3.8 38 10.87-1.91 2.75-3.48 5.66-5.66 8a386.83 386.83 0 0 1 -50.19 46.09c-8.45 6.42-16.35 8.47-25.67 4.56-15.51-6.52-32.47-9.21-47.15-18-1.32-0.79-3.84-1.31-4.79-0.6-1.72 1.29-4.05 4-3.65 5.42a20 20 0 0 0 5.09 8.25c6.05 6.15 14.44 8.48 21.71 12.65 5.49 3.16 13.13 2.77 16.77 9.39-4.28 6.58-11.63 6.68-17.49 9.29-13.82 6.15-28 11.5-41.94 17.39-1.23 0.52-2.24 2.52-2.55 4-0.68 3.27 2.19 4.63 4.37 4.76a140.69 140.69 0 0 0 61.67 -10.67c25.46-10.42 50.93-16.93 78.5-13.81 6.49 0.73 13.34-2.83 20.63 2.11-4.28 17.82-12 34-24.27 47.29-26.3 2.21-33.59 1.65-55.65-5.48-8.07-2.61-16-5.32-24.59-5.2-4.09 0.06-9.15-0.52-10.29 4.61-1.06 4.79 3.23 7.5 6.75 9.68 5.7 3.53 11.4 6.9 18.42 7.88a232.17 232.17 0 0 1 29.58 5.93c4.32 1.2 10.12 0.7 12.8 6.76-13.28 13.94-34.4 12.78-48.8 24.27 0.17 1.92-0.31 4.19 0.55 4.95 5.15 4.57 11.36 7.51 18.17 5.35 16.88-5.36 33.8-11.06 46.52-24.3 8.08-8.41 18.68-11 29.24-13.66 1.87-0.47 5.16 1 6.35 2.61s1.34 4.8 0.91 7.09a11.86 11.86 0 0 1 -3.32 6.57c-15.33 13.22-30.95 25.68-51.08 31.59-28.93 8.49-57.62 11.81-87 2.27-10.37-3.38-21.09-5.66-31.68-8.32a8 8 0 0 0 -8.84 3.19c-2.26 3-0.37 8.34 3.91 10.48a102.87 102.87 0 0 0 11.57 4.86c11.19 4 23 4.92 34.55 7 37 6.55 73.54 7.71 109.45-5.69a17.49 17.49 0 0 1 7.44 -0.84c1.36 0.12 2.6 1.71 4.77 3.26-2.32 3.37-4.17 7.25-7.06 10.07-34.52 33.82-26.06 35.54-78.52 28.93-23.29-2.94-46.94-3.13-69.77-9.55-1.15-0.32-3.67 1.07-4.16 2.25-0.87 2.09-1.6 5.1-0.69 6.86a22.52 22.52 0 0 0 6.63 7.46c12.5 9.22 26.89 13.71 42.08 16 9.94 1.46 20.19 1.62 29.23 7.47-3.3 7.87-11.62 8.73-17.73 12.47-3.51 2.15-8.05 2.76-10.32 6.69a6.52 6.52 0 0 0 -0.82 4.59 5.5 5.5 0 0 0 3.26 3.26c5 1.3 9.81 0.37 14.78-1.2 19.4-6.11 37.39-15.16 54.6-26.13 8.63 5.6 18.67-0.4 26.92 4.26 0 4.32-2.1 6.85-4.47 9.31a238.53 238.53 0 0 1 -57.86 44.63c-15.53 8.46-31 17-48.26 21.89-3.31 0.94-7.93 3-5.54 10 18.23 0.48 36.41-0.32 54.12-6.93 25.53-9.52 48.79-22.62 68.67-41.52 3.18-3 6.11-8.55 13.74-4.65 0 3.47-0.06 7.6 0 11.72 0.51 28.68 1.25 57.35 1.48 86 0.08 9.55 1.63 18.39 7 26.38 3.24 4.77 12.4 4.69 15.09-0.55 3.83-7.44 6.31-15 5.55-24-1.47-17.59-1.46-35.31-1.79-53-0.06-3-0.38-7 5.75-7.74 6.82 6.1 14.17 12.91 21.78 19.41 7.92 6.77 18 9 27.56 12.17 14.19 4.77 17.31 4.29 27.32-1.35-0.23-0.79-0.21-1.86-0.72-2.34-1.82-1.67-3.58-3.71-5.78-4.6-24.9-10.14-44.09-27.68-61.6-47.35-2.5-2.8-6.06-6-2.38-11.82 18.31-0.92 35.72 1.44 51.24 14.37 9 7.47 19.48 13.48 30.09 18.45 12.91 6.05 26.56 10.59 40.09 15.17a21.64 21.64 0 0 0 8.32 0.64c1.7 0.75 3.39 1.53 5.06 2.37 2.15 1.07 4.92 1 7.43 1.28 31.59 3.53 62.29 1 91.3-13.29 9.07-4.46 18.24-8.74 27.25-13.32 3-1.53 5.73-3.52 10.46-2 2.39 8.36 2.51 17.56 2.49 26.74 0 10.55-2.29 13.41-11.72 16.8-19.61 7-39.53 8.44-59.62 2.71-6.82-2-11.39-0.1-15.07 5.49 1 5.12 3 9.82 8.16 11.79 22.21 8.51 44.53 16.46 68.56 6.69 0.45-0.19 1.38 0.82 2.67 1.64-0.9 1.93-1.49 4.23-2.87 5.88-1.57 1.9-3.65 4.19-5.85 4.62-11.48 2.25-23.26 6.32-34.58 5.39-25.1-2.05-50.26-5.42-73.8-15.56-10-4.32-20-8.72-30-13-3.53-1.5-8.38 2.85-8.14 7 0.27 4.61 2.54 7.78 6.34 10.2 12.92 8.21 26.71 14.77 41.68 17.6 14 2.65 27.81 6.88 42.36 6.63a45.88 45.88 0 0 1 14.82 2.68c4.28 1.4 10-0.7 13.24 5.49a77.5 77.5 0 0 1 -28.12 16c-16.82 5.53-33.9 9.87-51.7 10.86-4.66 0.26-7.85 3.17-6.89 5.61a7.36 7.36 0 0 0 5.17 4.71c27.33 8 53.42 4.81 78.11-9 14-7.8 28.31-15.07 40.4-25.9 2.28-2 5.74-2.77 8.63-4.09 3.5 6.31 2.91 12.3 3 18.16 0.27 20.25 1 40.51 0.48 60.74-0.32 13.65 2.29 26.85 3.84 40.22 0.53 4.56 3.69 7.29 8.22 8.46 9.62-7 13.23-16.94 13.41-28.48 0.14-8.43 0.36-16.86 0.4-25.29 0.1-17.71 0.07-35.43 0.17-53.14 0-3.49 1-6.61 5.68-7.61 4.36 3.17 8.86 6.92 13.8 9.93 17.4 10.58 35.61 19.1 56.37 20.46 4 0.27 8.17-2.76 7-5.07-1-2.12-2.42-4.74-4.34-5.63a191.38 191.38 0 0 0 -18.79 -7.26c-17.87-6.06-33.2-16.24-47-28.84-1.64-1.5-3.52-3.56-0.81-7.2 8.23 2.11 16.83 4.86 25.64 6.44 17.23 3.09 34.28 9.59 52.24 3.47a22.12 22.12 0 0 1 10.06 -0.42c16.12 2.45 26.6-8.47 38.38-16.12 1.52-1 2.25-4.71 1.79-6.83s-3-3.85-5.84-3.38c-7.46 1.23-14.88 2.84-22.38 3.7-31.82 3.66-80.64-13.84-104.25-37.25-1.11-1.11-1.48-3-2.27-4.58 5.79-5.66 12.46-8 20.55-5.87s16.26 4.35 24.49 6c28.94 5.78 57.92 8.66 86.83 0.66 7.41 2.26 15.21 3.5 22.59 5.46 15.38 4.1 31.82 4.26 47.14 8.48 16.25 4.48 31.68-2.08 47.66-0.46 15.63 1.57 30.8-6 50.09-6.37-23.38 20.49-46.06 34.24-74.46 35.18-9.61 0.31-17.93 4.2-26.73 6.76-1.73 0.5-2.68 3.65-4 5.65 7.15 8.93 16.92 7.48 26 7.8 9.27 0.33 18.68 0.91 27.81-0.28 9.94-1.29 20.05-3.43 29.28-7.18 8.44-3.43 15.79-9.53 23.63-14.43 7.52-4.7 10.47-14.84 20-18.18 3.43 9.28 3.24 17.7 2.81 26.08-1.49 29.39 0 58.8-3.43 88.26-3 25.83-1.62 52.17-2 78.29a51 51 0 0 0 1.38 12.49c1.08 4.56 4.59 6.75 9.28 6.94 7.77 0.31 13.5-3.94 14.26-11.18 0.52-5 0.32-10.1 0.34-15.16 0.2-48.09 0.26-96.19 0.71-144.28 0.05-5.39-2.21-11.75 2.65-15.7 3.7-1.23 5.53 0.84 7.41 2.42 15 12.62 31.93 21.6 50.38 28.2 13.19 4.72 26.51 4.55 40 3.32 8.06-0.74 10.77-3.94 14.54-14.47-17-7.21-36.39-6.76-52.58-16.26-16-9.41-31.12-19.76-39.34-37.85 17.8-7.58 36.8-6.38 54.6-11.38 3.68-1 8.31 0.31 12.26 1.41 31.82 8.87 64.36 11.53 97.23 12.22h4.22l-0.19 0.14c3.31 2.07 5.8 4.69 8.67 5.21a191.19 191.19 0 0 0 25 3c28.1 1.29 55-5 80.54-15.09 1.75 2.28 3.57 3.55 3.57 4.82 0 22.75 0.16 45.52-0.58 68.25-0.51 16 1.3 31.76 2.47 47.6 0.16 2.17 2.42 4.07 5.39 4.4 8 0.9 14.07-2.84 14.74-10.05a176.52 176.52 0 0 0 0.36 -17.68c-0.16-24.46-0.4-48.92-0.58-73.38 0-4.2-0.2-8.47 2.92-11.93 1.62 0.16 3.3 0.2 4.93 0.51 34.48 6.52 34.64 6.34 62.13 29.58 14.34 12.13 31.56 18.61 47 27.19 5.5-3.72 6.59-7.88 2.71-11.14-5.75-4.85-12.44-8.58-18.64-12.91-10.15-7.08-11.93-9.22-19-21.95 3-3.78 7.39-3.41 11.41-3.83 19.54-2 37.13-10.33 55.14-17.2 1.07-0.4 2.19-2.95 1.89-4.16a4.66 4.66 0 0 0 -5.51 -3.65c-2.47 0.39-4.85 1.3-7.32 1.79-6.58 1.31-13.13 3.15-19.78 3.63-10.07 0.72-20.15 1.56-30.17 2.19-18.1 1.14-35.35-2.37-44.49-21.39-1.81-3.79-4.45-7.17-6.44-10.88-1.67-3.14-2-6.33 1.68-9 18.47 7.89 37.84 14.69 57.74 17.09 34.4 4.15 69 3.39 102.91-5.6 3-0.79 5.54-3.45 8.08-5.51 1.8-1.42 0.6-5.68-1.6-6.14zm-572.1-382.54c-7.77 5-14.52 9.73-23.3 7.8a11.12 11.12 0 0 1 -0.54 -2.7 4.89 4.89 0 0 1 0.87 -2.3q10.8-13.62 21.74-27.14c0.37-0.45 1.55-0.24 3.37-0.47 5.1 9.08-1.5 16.94-2.1 24.81zm-25.4 166c-9.06-0.13-18.48 0-27-7.27 13.06-8.48 26.74-15.39 38.45-25.4 5.3-4.52 13.13-6.25 20.46-6.5 0.63 1.15 1.32 1.85 1.39 2.61 3.4 36.16 1.1 37.13-33.3 36.56zm-652-90.9c5-10.15 10.19-16.2 16.76-21.41 7.67 14.88 5.69 17.75-16.76 21.45zm324.84-20.05c1.66 10.86 2.29 19.35 0.9 27.42-13.32 7.3-13.36 7.14-24.16 3.61 6.63-10.44 12.42-21.02 23.26-30.99zm-41.51 63.05c9.52 2.67 19.79 2.57 29.63 4.29 1.63 0.29 3.81 3.68 3.75 5.57s-2.37 5.37-4 5.56c-18.72 2.12-37.65 5.21-55.75-4.76 7.04-9.76 14.64-13.9 26.37-10.62zm-89.6 10.12a60.65 60.65 0 0 1 -12 -2.26c1.21-0.88 2.37-1.78 3.49-2.68zm-147.06-106.7c0.62-1.33 2.18-3.51 2.81-3.35 4.58 1.2 9 2.9 14.71 4.85-11.53 3.8-11.54 3.83-15.61 2.44-1.9-0.65-2.75-2.14-1.91-3.94zm59 304.71c-5.22 0.13-10.26-0.36-14.09-4.23-8.77-8.85-18.59-16.79-25.63-27 5.6-6.4 10.1-0.53 14.68-0.83 18.55-1.23 36.65 1.7 54.84 4.91 24.47 4.32 48.67-0.07 72.73-4.41 5.21-0.94 8.93-4.45 11.33-9.28 1.24-2.5-0.23-7.5-2.64-8.76-4.72-2.46-9.63-2.69-14.74-1.76-9.1 1.65-18.16 4.23-27.32 4.64-25.36 1.15-50.34-2-75.19-7.41-17.32-3.77-30.19-14.35-43.53-24.55-4.92-3.76-7-9.5-8.46-15.23-1.6-6.19 1.11-11.42 5.21-16.73 6.26 3.75 12.44 7.77 18.91 11.27 22.23 12.14 44.92 23.14 69.54 29.75 9.23 2.49 18.29 3.28 27.44 1.37 5.76-1.2 11.32-3.65 13.22-11.37-8-4.51-17-5.21-26-6.7-15-2.48-30.1-5.33-43.19-13.29-15.1-9.19-29.59-19.43-44-29.74-5.31-3.81-11.15-7.86-12.48-16.2 13.17-4.84 26.91-7.43 39.78-9.75 10.6 3.91 18.7 9.69 27 15.71 17.67 12.86 35.84 25.14 56.34 33.44 5.54 2.24 11 4.32 17 4.26 4.83-0.05 7.71-2.43 8.59-8.11-5.52-3.23-10.94-7.6-17.14-9.82-17.67-6.3-32.21-18.1-48.61-26.61a49.27 49.27 0 0 1 -11.91 -9.26c-3.2-3.23-8.82-5-8.29-11 5.19-6.58 13.48-6.93 20.08-10.49s13.86-3.56 21.86-2.58a212.36 212.36 0 0 0 46.6 0.65c10.68 1.29 23.11-4.9 34.68 0.53 12 5.63 27.13 0.79 38.29 11.31-20.17 12.7-41.24 19.8-65 16.91a89.33 89.33 0 0 0 -15.17 -0.25 16.15 16.15 0 0 0 -6.93 2.22 5.52 5.52 0 0 0 -2.24 4c0 1.27 1.17 3.53 2.15 3.73 8.18 1.66 16.47 2.78 24.66 4.36 25.67 5 50.36 1.84 74.14-8.8 6.15-2.75 12.08-6 18.16-8.92 2.69-1.29 4.59 0.11 6.86 3.22-21.08 20.57-44 38.14-72.48 45.45-11.56-5.23-14.76-19.69-27.68-20.7-3.33 4.42-1.08 8.74-1.58 12.79-1 8.09-4.64 14.38-12.83 17.11-2.39 0.8-5.15 0.88-7.21 2.16a10.27 10.27 0 0 0 -4.37 5.38c-0.68 2.53 1.32 4.52 3.87 5.4a50 50 0 0 0 22.28 2.98c7.09-0.77 12.81 2.34 17.85 7.64 7.45 7.82 15.56 15 23.74 22.78-5.81 8.83-15.21 12.71-24.37 16.91-20 9.19-41.2 14.79-62.62 19.61-6.55 1.47-13 3.31-19.42 5.38-3.14 1-4.6 3.54-4.6 6.72-13.89 1.6-28.07 0.84-42.11 1.19zm218.67-122.55c-2.92 11.32-6.34 19.32-12.5 26.2a250.22 250.22 0 0 1 -17.84 17.81c-4.64 4.25-10.19 6-16.22 2.65-6.42-3.56-13.74-5.67-19.55-12.1 9.49-9.49 22.84-10.33 33.63-16.21s20.07-14.7 32.48-18.35zm6.1 125.42a15.75 15.75 0 0 1 -7.86 12.35c-15.1 9.19-30.25 18.33-45.63 27-10.34 5.86-21.74 8.79-33.52 10.59-25.93 4-51.53 4.26-76.72-4.62a15 15 0 0 0 -3.08 -0.68c-10-5-19.4-11-29.11-16.51-2.9-1.64-5.81-3.52-6.28-7.37 0.91-1.24 1.57-3.12 2.81-3.64 4.63-2 9.42-3.59 14.22-5.14 10.38-3.38 20.87-6.46 31.18-10a37.61 37.61 0 0 0 5.17 -2.28c15.07-0.81 30.27-4.05 42.53-9.69 16.83-7.73 34.08-15 48.84-26.42 7.63-5.9 15.33-6.36 23.76-3.73 4.73 1.47 9.83 2.54 13.55 7.35-11.5 22.08-26.86 40.34-50.74 50.34-7.76 3.24-15.22 7.25-22.7 11.11-2.94 1.52-6.05 3.19-8.18 5.59-1.42 1.6-2.3 5.09-1.49 6.86s4.35 3.37 6.18 2.93c18-4.35 36-8.92 51.54-19.77 6.92-4.82 14.35-9 20.88-14.28 7-5.67 13.15-12.32 19.3-18.2 4.84 1.56 5.69 4.58 5.35 8.21zm349.75-41.3c1.63-0.56 5.36 1.3 6.13 3s-0.16 5.08-1.52 6.82a9.86 9.86 0 0 1 -6.39 3.58c-7.51 0.44-15.06 0.17-25.06 0.17 9.4-7.74 18.2-10.6 26.9-13.57zm-304.44 82.47a83.48 83.48 0 0 1 -13.89 -10.21c-4-3.68-4.35-8.64-1.2-14.81l36.74 19.47c-12.19 10.35-13.07 10.73-21.65 5.55zm310.72 6.3a96.47 96.47 0 0 1 -44.55 22.5c-36.72 7.79-73.82 6.5-110.83 3.23-10.68-0.94-21.66-3.66-29.88-12.11-0.92-1-3.13-0.64-5.31-1-4 2.09-8.59 4.22-12.88 6.79-1.18 0.71-1.58 2.73-2.74 4.91 0.34 0.38 0.71 0.71 1.07 1.07a88.06 88.06 0 0 0 -17 -1.6c-15.51 0.32-30-3.7-44.81-6.84-4-0.84-7.94-2.26-8.49-8l18.83-14.57c2.91 0 4.7-0.42 6.2 0.07 18.68 6.09 38.38 4.14 57.48 7.34 16.84 2.82 33.13-3.54 49.28-8 2.25-0.62 4.82-2.66 3.72-5.3a8.86 8.86 0 0 0 -5.27 -4.71 55.41 55.41 0 0 0 -12.5 -1c-16-0.12-32.07 0.12-48.1-0.19a199.8 199.8 0 0 1 -22.62 -2 10.22 10.22 0 0 1 -7.88 -5.7c7.34-7.47 7.33-7.5 11.46-8.14 10.81-1.67 21.7-2.91 32.41-5.08 9-1.81 18.07-4 24.39-11.25-1.88-6.73-6.81-8.06-11.89-7.75s-9.81 2-14.73 2.94c-6.48 1.29-13 4-18.46 0.77-4.36-5.64 5.05-9 0.23-14.38-12.59-3.43-15.17 11.38-25.79 14.23-19.65 1.09-50.92-5.53-74.28-16.17-6-2.72-11.62-5.89-14.89-12.58 11-9.84 22.2-12.39 35.68-9.43 25.73 5.66 52 3.88 78.12 4.11a18.84 18.84 0 0 0 13.73 -6c2.38 1.27 4.84 2.41 7.29 3.53a231.59 231.59 0 0 0 87.93 20.74c11 0.43 21.68 1.21 32 6.1 14.52 6.91 30.46 9.3 46 13 7.23 1.73 15.29-2.19 22.4 4.12-6.92 8.23-15.38 12.6-26.07 13.23-19.57 1.15-38.76-0.2-57.29-7.22-16.44-6.23-32.92-12.37-49-18.4-3.77 2.29-5.71 5.3-3.41 8.5a35.93 35.93 0 0 0 9.06 8.4c16.74 11.24 35.71 18.06 53.74 26.5-1.13 4.08-4.39 5.38-7.73 5.72-7.55 0.75-15.15 0.87-22.71 1.52-3.38 0.29-6.58 1.37-6.64 5.86 6.38 7.88 15.3 9.69 24.71 9.85 11.8 0.2 23.62-0.08 35.43 0a64.88 64.88 0 0 0 29.33 -6.57c6.78-3.32 13.82-6.12 20.87-8.81 1.15-0.44 3.22 0.5 4.4 1.4 2.5 1.94 1.9 4.66 0 6.37zm76.69-309.65c4.16 0.54 8.54 2.49 12.39 1.71 21.36-4.33 43.62-4.33 64-13.77 8.23-3.83 17.14-6.19 25.71-9.3 1.06 5.92 5.52 7.86 9.55 9.4 15.22 5.83 31.21 8.29 47.16 4.85 14.21-3.06 28.44-2.13 42.06-3.7 5.68 3.64 10.52 7 15.64 9.92 5.52 3.12 11.3 5.78 16.91 8.62-2.18 5.2-6.2 6.49-10.41 7.18-15.09 2.45-30.13 2.24-44.91-1.87-10.55-2.94-21-5.26-32.18-1.26 8.67 8.9 11.26 11 20.46 13.74 19.37 5.82 38.83 11.27 59.36 10.94 4.12-0.07 8.58-0.23 10.21 5-3.43 14.95-13.43 20.67-27.81 19.28-11.71-1.13-23.32-3.3-35-4.68a78.89 78.89 0 0 1 -25.91 -7.69c0-0.2 0.05-0.39 0.07-0.58 0.25-2.92-2.52-4.37-4.85-4.68l-5.52-0.71q-3.65-2.46-7.15-5.26c-4.4-3.54-7.66-9-14.17-9.51-1.69 9-1.65 9-0.17 11.49 0.14 0.22 0.28 0.43 0.41 0.65-6.15-0.72-12.29-1.42-18.45-2a289.79 289.79 0 0 1 -44.7 -7.91c-22.91-6-44.39-15.8-66.33-24.37-1.21-0.47-1.73-2.74-2.72-4.43 5.3-3.61 10.9-1.77 16.4-1.06zm-64.2-85.13c-2.72-14.28-1.26-26.8-1.33-39.22 0-2.11 1.47-4.22 2.49-7 7.64 6.31 14.13 13 21.85 17.68s16.61 6.75 23.86 12.75c-18.4 11.81-22.9 13.36-46.9 15.79zm8.46 104.76c1.86 0.74 4.53 1.1 6.2 2.58 15 13.26 33.46 19.27 52.3 24 10.52 2.63 20.6 6.77 32 6.7a444.4 444.4 0 0 1 65.54 4.38c9.79 1.39 19.81 1.31 29.78 1.17a98.59 98.59 0 0 0 36.65 23.45c8.52 3.19 18.42 3.65 25.75 11.58-5.5 7.47-13.82 11.67-21.1 17-8.13 5.91-16.81 11.07-25.09 16.79-1.06 0.73-1.72 2.94-1.56 4.35a4.54 4.54 0 0 0 5.29 4c16.69-2.55 33.24-5.33 46-18.25a130 130 0 0 1 17.5 -14.37c4-2.87 8.8-6.34 13.38-6.56 11-0.53 21-4.58 30.81-7.62 4.38 6.41 1.68 12.4 2 18.15 0.46 8.85-4 14.47-11.88 17.33-20.55 7.44-40.77 15.91-63 18-15.06 1.4-30.06 3.72-45 6.35-19.31 3.4-38.44 3.75-57.64-0.6-8.88-2-17.85-3.7-26.81-5.33 0.77-0.85 1.59-1.68 2.4-2.51 8.21-8.49 16.67-16.75 24.74-25.37a19.82 19.82 0 0 0 4.83 -8.58c0.43-1.86-1.34-4.6-2.81-6.37-0.62-0.76-3.56-0.7-4.5 0.1-7.07 6-13.93 12.2-20.8 18.41-11.26 10.16-22.49 20.34-37.72 25.71-13.16-4.77-26.88-8.45-41-19.46 14-0.25 24.83-0.31 35.68-0.69 11.11-0.39 21.69-2.79 30.59-9.94 0.89-0.72 1.2-3.15 0.7-4.35s-2.53-3.16-3.52-3c-28.21 5.79-53-4-77.21-16.63-1.82-1-4.38-1.82-2.64-8.19 13.37 8.56 28.82 6.48 43.23 10.5a55.65 55.65 0 0 0 25.06 1.45c18.21-3.3 36.33-7.06 54.4-11a19.9 19.9 0 0 0 12.37 -8.25 6.46 6.46 0 0 0 0.74 -4.64c-0.64-2.58-2.74-5-5.34-4.46-26.73 5.34-53.68 3.12-80.57 2.72-13.62-0.2-27.34-2.18-38.78-9.55-12.72-8.18-24-18.5-31.44-32.22-1.1-1.93-3.4-4.33 0.4-6.78zm311 168.5c-6.62 3-13.53 5.42-21.4 8.52-0.45-5.62 3.78-7 5.78-9.55a61.33 61.33 0 0 1 6.88 -7.08c2.94-2.71 5.38-6.32 10-6.41 3.2 8.59 3.1 12.47-1.4 14.52zm-308.2-52.43c13.11 8.61 26.11 17 41.48 20.54-1 2.4-1.06 3.59-1.62 3.88-11.35 5.8-32 3.53-39.11-4.88-4.7-5.52-4.4-12.16-0.8-19.54zm8.7 189.24c-3-1.44-3.48-2.9-2.85-10.59l14.6 9.17c-7.9 2.81-8.6 2.89-11.8 1.42zm166.36-34a56.28 56.28 0 0 0 12.29 1.73c21.1 0.18 42.19 0 63.29 0.24 4.43 0 9.58-1.58 13.21 3.1-4.51 2.54-8.73 5.28-13.24 7.39-26.7 12.49-53.32 25.23-83.63 26.52-5 0.21-9.87 1.87-14.79 2.91-2.64 0.57-4.74 2.24-4.58 4.92a4.74 4.74 0 0 0 5 4.56c17.56 0.41 34.91 0.69 52.49-2.62 30.25-5.71 58.75-14.57 83.29-33.95 7-5.52 14.14-11 23.47-15.42 0.26 4.92 0.15 8.28 0.66 11.54 2 12.43-3.81 21.33-13.26 28.09-13.74 9.83-27.84 18.35-45.4 20.92-11.46 1.68-22.9 3-34.4 3.76 0.59-0.33 1.19-0.64 1.78-1 2.24-1.34 3.47-3.09 1.27-7.32-16.74 0.38-34.36 2.89-51.9 0.51-17.36-2.36-37.26-8.55-50.59-16.14 7.08-5.09 13.82-9.79 20.4-14.7 6.07-4.54 12.17-9.08 17.85-14.08a24.44 24.44 0 0 0 5.55 -8.26c1.15-2.52-0.49-4.59-4-6.3-2.21 1.48-5 3.15-7.62 5.12-14.14 10.74-29 20.07-45.62 26.71-10.12 4-19.43 4-29.29-0.38a311.57 311.57 0 0 1 -51 -27.71c-2.13-1.46-2-2.7 0.65-3.7 1.14 0 3-0.57 4.32 0.08 23.81 12.22 49.33 9 74.49 8 5.65-0.21 11.33-2.89 16.74-5.08 3-1.2 5.28-3.8 3.65-8.31-7.85-2.94-16.48-2-24.63-1.19-27.21 2.84-51.14-8.32-75.74-16.65a21.4 21.4 0 0 1 -8.15 -5.8c-6.15-6.58-11.93-13.51-17.87-20.33 4.71-3.71 9-2.92 12.82-1.28 5.4 2.3 10.25 6.43 15.81 7.73 37.4 8.74 75 9.87 112.71 1.52a24.71 24.71 0 0 0 17.38 -13 12.39 12.39 0 0 0 -1.64 -1.79c-3.12-2.16-6.77-1.65-9.66-0.35-10.42 4.72-21.39 3.91-32.33 4.32-25.59 0.95-49.74-6.11-74.08-12.89 10.79-2.15 21.52-2.24 32.13 0.68 10.79 3 21.77 2.22 32.68 1.68 6.76-0.34 10.49-4.71 11-13-10.87-0.45-21.79-0.18-32.5-1.54a149.34 149.34 0 0 1 -29.48 -6.68c-9.63-3.29-21.26-2.39-28.47-12.25 2.28-1.31 4.34-3.42 6.61-3.67a90.57 90.57 0 0 0 42.23 -15.43 19.86 19.86 0 0 1 14.53 -3c6.67 1 13.36 1.79 20 2.93a164.61 164.61 0 0 0 62.45 -1.07c29.24 3.1 59.23 1.55 90-2.6-7.94 10.29-14.49 18.68-22.87 25.87-11.07 9.49-22.58 13.29-37.23 10.31s-30-4.11-45-5.81a5.48 5.48 0 0 0 -4.16 2.23c-1.65 2.44-0.37 5 1.74 6.33 8.65 5.43 18.49 7.89 28.12 11 4.14 1.31 10 1.44 11.15 8.67-6.33 3.77-12.67 7.87-19.29 11.43-14.12 7.58-28.37 14.89-42.6 22.27-4.47 2.32-9.39 4-12.36 8.44-1.71 2.59-0.33 4.65 2.36 7.33 20.94-6.65 42.54-13.2 63.89-20.46 7.9-2.69 15.26-7 22.81-10.65 18.77-9.16 36.46-21.51 58.9-19.76 0.78 0.06 1.58-0.65 2.4-0.76 6.66-0.91 13.31-2.23 20-2.53 7.33-0.32 13.82-6.67 21.55-3.27 2.5 14 2.49 14.63-1.46 19-7.94 8.76-16.34 16.41-27.74 21.27-25.87 11-52.49 17.81-80.56 19-5.9 0.26-11.84 0.32-17.67 1.12a28.54 28.54 0 0 0 -9.33 3.52 5.35 5.35 0 0 0 -2.08 4.19c0.3 1.38 1.6 3.56 2.7 3.83zm134.82-307.57c-5.07 4.09-11.11 1.4-16.1-2.09-1.33-0.93-2.26-2.4-4.17-4.51 6.87-4.28 13.24-8.87 21.19-10.42 3 6.59 4.2 12.98-0.9 17.06zm2.58-53.73c-4.81 10.34-13.46 17.15-23.32 22.26-7.45 3.87-15.3 7-24 10.88-8.47-5.17-16.91-7.67-20.44-16.26 9.41-8.69 22.53-6.61 33-12.05s21-10.35 31.18-15.31c6.1 2.34 5.2 6.92 3.6 10.52zm22.69 107.67c6.36 0.54 10.42 4 13 11.65-15 1.38-16 0.34-13-11.61zm1.69 203.57c-4-2.28-2.3-5.34-0.32-8.16 6 0.66 10.52 3.7 14.22 8.28-4.7 3.2-9.5 2.41-13.9-0.08z" fill="inherit"/>
  <path d="m365.61 789.14c-4.27 1.54-8.12 0.2-12.22-1.12-10.32-3.32-20.81-6.15-31.88-9.36 2.67-3.9 5.43-7.13 7.2-10.83 0.91-1.9 0.89-5.21-0.22-6.85s-4.15-3-6.33-3c-2.34 0-4.76 1.57-7 2.76-15.76 8.48-28.36 3.53-41.4-7.27-18.19-15.06-33-32.72-47-51.16 2.67-2.94 5.31-3.11 7.61-2.06 4.58 2.08 8.94 4.64 13.39 7 20.88 11.14 42.41 20.48 65.61 25.88a88.66 88.66 0 0 0 25 1.85c1.89-0.1 4.57-2.35 5.28-4.22 1.36-3.58-1-6.54-4-8.23-2.13-1.19-4.9-1.14-7.23-2-11.7-4.57-24.72-5.51-35.44-12.88 3.07-4.84 8-5.9 13-6.64 5.83-0.88 11.75-1.14 17.62-1.83 11.91-1.4 23-4.93 32.49-12.64 2.72-2.22 5.3-5 3.4-8.34-0.91-1.6-4.28-2.06-6.64-2.51a10 10 0 0 0 -5 0.61c-25.17 9.11-51.35 7.77-77.48 8.12-17.14 0.24-31.53-4-42.4-17.78 0.7-0.46 1.38-1.29 2.05-1.28 3.33 0 6.8-0.25 10 0.58 25.24 6.63 50.24 2.63 75.2-1.62 5.75-1 11.6-2.84 15-8.32 0.61-1 0.18-3.84-0.62-4.29a15.85 15.85 0 0 0 -7 -2c-16-0.44-32.08-0.09-48.05-1.14-13.1-0.85-26.35-2.55-38.38-13.16 8.62 0 15.35 0.32 22-0.07 9.23-0.54 18.48-1.36 27.62-2.7 1.59-0.23 3-3.5 3.86-5.62 0.21-0.52-2.1-2.9-3.35-3-6.72-0.49-13.47-0.67-20.21-0.69-14.47-0.06-28.41-3.42-42-7.69-13-4.1-14.44-8.44-11.13-25.31 1.64 0 3.57-0.59 4.84 0.08 24.81 13.22 51.8 19.09 78.91 25.45 16.63 3.9 31.52 1 46.93-3 1.07-0.28 2.21-2.56 2.25-3.93s-0.9-3.66-2-4.1a189.72 189.72 0 0 0 -18.87 -6.7c-12.13-3.47-24.53-6.06-36.54-9.91-11.76-3.77-24.11-7-32.69-17.7 18.64-7.1 37.21-12.84 54.57-21.15 17.08-8.18 34.32-16.7 49.35-28.79-6.43-8.16-10.16-10-14.71-7.28a99 99 0 0 0 -10.35 7.18 70.86 70.86 0 0 1 -27.21 13c-13.89 3.38-27.71 7.38-41.8 9.43-14.92 2.16-30.15 3.15-45.21 0.44-6.9-1.24-10.05-5.46-8.07-13.85 8.47-4.72 18.41-5.88 28.5-6 12-0.17 23.38-3.08 34.49-7 12.7-4.51 25.21-9.55 37.64-14.76 2.9-1.21 5.38-3.8 7.57-6.21 0.78-0.86 0.69-3.37 0-4.53a5.53 5.53 0 0 0 -4.07 -2.37 24.62 24.62 0 0 0 -7.26 1.72c-22.67 8-46.09 9.19-69.83 8-34.81-1.81-27-4.24-29.42-31a61.83 61.83 0 0 1 -0.12 -12.61c0.39-3.41-2-8 3.69-10.53 2.12 2.82 4.15 5.41 6 8.1 11.1 15.63 27.09 24.81 43.78 33 0.81 0.4 2.84-1.33 4.11-2.32a2.62 2.62 0 0 0 0.86 -2.23 24.92 24.92 0 0 0 -2.74 -6.73c-10.55-15.23-21.38-30.28-31.83-45.59-2.18-3.18-5-7.06-0.46-11.66 4.9 2.81 9.81 5.84 14.94 8.48a4.81 4.81 0 0 0 6.49 -1.83c0.63-1.06 0.27-3.43-0.55-4.55-9-12.22-17.81-24.55-27.25-36.4-13.69-17.18-19.11-37.22-21.38-58.45-0.72-6.71-0.47-13.52-1.31-20.21-1.67-13.29-3.7-26.55-5.85-39.78-0.18-1.07-2.38-2.43-3.72-2.53s-3.58 0.76-4.21 1.88c-5.92 10.65-6.56 22.61-7 34.31-1.09 27.3-12.19 50.17-30.12 70.3-3.34 3.75-6.95 7.36-9.63 11.56-1.43 2.22 0.89 4.54 3 6.13 6.39 0.14 10.51-4.78 15.74-7.28 2.38-1.14 4.54-1.65 6.07 1.55-7 25.66-20 47.73-40.49 65.3-5.75 4.93-11 10.51-16.31 15.91-2.41 2.43-4.4 5.61-1.83 8.68 1.35 1.62 4.36 2.4 6.7 2.57 6.09 0.44 11.17-2 16.33-5.45 18.43-12.48 32.86-28.8 46.4-46.12 1.49-1.9 3.12-4.16 6.42-3 4.38 4.88 1.76 11 2.56 16.6 2.63 18.52-6.22 30.71-21.72 39.1-5.18 2.81-10.31 6.3-15.9 7.65-25.18 6-49.94 15-76.58 12.11a18.42 18.42 0 0 0 -9.67 2.05c-1.69 0.84-2.81 3.74-3.18 5.89-0.19 1.1 1.64 3.47 2.89 3.75 13.12 2.92 26.3 5.51 39.46 8.24 8 1.65 16 3.37 26 5.5-27.83 26.31-64.19 29.79-94.85 46.26 3.53 6.78 7.74 7.29 12 7.78 22.49 2.6 43.55-3.39 63.93-11.69 24.27-9.88 47.3-22.18 67.53-39.19 2.31-1.94 4.57-5.32 8.48-2.56-0.1 1.46 0.39 3.42-0.38 4.28-9.5 10.69-18.34 22.21-29.07 31.53s-23.09 17-35.37 24.35c-18.09 10.81-38.46 16.31-58.27 21.83-0.09 1.93-0.5 3.16-0.1 3.55 1.63 1.59 3.4 4 5.32 4.19 19.87 2.25 38.55-2.6 56.4-10.74 17.59-8 35.39-15.76 50.87-27.75 3.26-2.52 7.29-4.45 11.38 1.17-18.2 30.12-43.44 52.25-74.58 65.87-13.42-5-22.28-18.82-38.25-11.63 2.47 10.3 14.14 12.87 16.59 21.67-1.21 2.09-1.7 4.05-2.94 4.86-11.32 7.39-23 14.31-36.52 16.71-10.35 1.84-18.58 7.58-27 13-1.13 0.72-2.18 3.12-1.82 4.29a5 5 0 0 0 5.66 3.5 24.18 24.18 0 0 0 5 -0.53c21.63-7 44.5-9.33 65.72-17.88 8.84-3.56 18.5-5.06 26.83 0.12 11 6.83 23.07 10.1 35 14.25 7.95 2.77 15.75 6 23.5 9.28 1.07 0.45 1.47 2.49 2.17 3.8-0.79 1.45-1.24 3.32-2.42 4.3-16.42 13.64-34.83 15.29-54.73 9.28-17.84-5.38-34.82-12.64-51.65-20.47-4.31-2-8.19-1.2-9.21 4.48 15.5 13.19 34.74 20.17 53.84 32-13.34 2.06-24 4.22-34.85 5.18-5.76 0.51-11.72-1.7-17.55-1.53a170.24 170.24 0 0 1 -32.23 -2.15c-2.62-0.42-4.56 1.66-5.41 4.12-1 3 1.14 5.36 3.15 6.17 34.26 13.74 69.26 21.35 106.14 12.82 6.48-1.49 12.9-4.12 20.4-0.29-9.48 12.56-22 20.91-34.77 29-23.16 14.55-49 22-75.06 29.19a151.53 151.53 0 0 0 -16.57 5.73c-1.06 0.43-2 2.81-1.84 4.16a5.12 5.12 0 0 0 2.79 3.58 16.46 16.46 0 0 0 7.37 1c6.64-0.87 13.21-2.21 19.74-3.35a27.86 27.86 0 0 0 18.5 12.17c8.25 1.63 16.63 2.7 24.83 4.52 5.93 1.31 12.81 0.21 18.61 5.63-16 12-32.06 20.9-50.13 26.1-5.57 1.6-11.74 2.28-15.7 7.39-0.43 0.55-0.84 1.66-0.58 2.11 0.81 1.38 1.75 3.31 3 3.65a21.63 21.63 0 0 0 7.24 0.25c24.15-1.84 44.5-14.9 66.54-22.88a104.14 104.14 0 0 0 34.58 -20.6c4.84-4.37 10.65-7.69 17.7-12.69 2.6 12.62 3 23.55 2.94 34.3-0.14 27.81-1.12 55.61-1.61 83.41-0.21 11.81-0.08 23.62-0.05 35.44 0 8.48 4.25 12.34 12.17 13.19 5.23 0.56 10.41-4.23 11.44-11.44a215.08 215.08 0 0 0 2 -27.67c0.17-14.32-0.63-28.66-0.49-43 0.2-19.33 2.6-38.62 1.1-58-0.3-3.91-0.78-8.55 5.22-11.67 11.42 4.86 23.66 10.18 36 15.28 22.75 9.42 46 16.37 71.1 14.41 3.8-0.3 6-2.42 5-8.2-36.14-12.87-74.27-24.2-103.19-54.43 15.3-5.85 29.21-11.34 43.25-16.48a43.19 43.19 0 0 1 29.74 -0.18c6.35 2.2 12.74 4.35 19.22 6.11 13.29 3.59 26.66 3.91 39.85-0.38 2.9-0.94 7.28-2 7-5.83-0.32-4.08-3.87-5.01-7.61-3.65zm-196.3-125.73c-7.46-2.32-16.92-2-21.76-11.38 14.91-9.43 29.62-18.64 40.43-32.85 2.17 2.66 3.84 3.76 3.91 5a227.89 227.89 0 0 1 -0.52 37.06c-7.44 6.01-15.3 4.27-22.06 2.17zm22.69 118.32c-8.9 22.81-24.1 37.92-50 39.72-17.41 1.21-34.89 5.69-53.42-2.54 35.44-12.76 68.73-27.58 98.18-48 6.75 2.51 6.59 7.23 5.24 10.82zm28-11.73c-1.83-9.8-3-18.54 0-28.89l36.86 27.23c-12.39 11.95-24.08 1.97-36.86 1.66z" fill="inherit"/>
 </g>
</svg>